<svg width="21" height="33" viewBox="0 0 21 33" fill="none" xmlns="http://www.w3.org/2000/svg">
<path d="M9.555 28.05H11.3925V25.9875C12.2675 25.74 13.02 25.2038 13.65 24.3788C14.28 23.5538 14.595 22.33 14.595 20.7075C14.595 19.5525 14.385 18.4938 13.965 17.5313C13.545 16.5688 12.705 15.73 11.445 15.015C10.395 14.465 9.66875 13.9838 9.26625 13.5713C8.86375 13.1588 8.6625 12.595 8.6625 11.88C8.6625 11.165 8.82438 10.6013 9.14813 10.1888C9.47188 9.77628 9.94 9.57003 10.5525 9.57003C11.1125 9.57003 11.55 9.78316 11.865 10.2094C12.18 10.6357 12.4075 11.165 12.5475 11.7975L14.2275 10.725C14.035 9.76253 13.6806 8.92378 13.1644 8.20878C12.6481 7.49378 12.075 7.09503 11.445 7.01253V4.95003H9.6075V7.01253C8.7325 7.31503 8.05 7.92003 7.56 8.82753C7.07 9.73503 6.825 10.7525 6.825 11.88C6.825 13.1725 7.06562 14.2175 7.54687 15.015C8.02812 15.8125 8.785 16.5 9.8175 17.0775C10.92 17.71 11.6856 18.2738 12.1144 18.7688C12.5431 19.2638 12.7575 19.91 12.7575 20.7075C12.7575 21.615 12.5519 22.2819 12.1406 22.7082C11.7294 23.1344 11.235 23.3475 10.6575 23.3475C10.08 23.3475 9.56812 23.0657 9.12187 22.5019C8.67562 21.9382 8.3475 21.0925 8.1375 19.965L6.405 21.0375C6.65 22.3575 7.03062 23.4232 7.54687 24.2344C8.06312 25.0457 8.7325 25.6025 9.555 25.905V28.05ZM10.5 33C9.0475 33 7.6825 32.5669 6.405 31.7007C5.1275 30.8344 4.01625 29.6588 3.07125 28.1738C2.12625 26.6888 1.37812 24.9425 0.826875 22.935C0.275625 20.9275 0 18.7825 0 16.5C0 14.2175 0.275625 12.0725 0.826875 10.065C1.37812 8.05753 2.12625 6.31128 3.07125 4.82628C4.01625 3.34128 5.1275 2.16566 6.405 1.29941C7.6825 0.433155 9.0475 3.05176e-05 10.5 3.05176e-05C11.9525 3.05176e-05 13.3175 0.433155 14.595 1.29941C15.8725 2.16566 16.9837 3.34128 17.9287 4.82628C18.8737 6.31128 19.6219 8.05753 20.1731 10.065C20.7244 12.0725 21 14.2175 21 16.5C21 18.7825 20.7244 20.9275 20.1731 22.935C19.6219 24.9425 18.8737 26.6888 17.9287 28.1738C16.9837 29.6588 15.8725 30.8344 14.595 31.7007C13.3175 32.5669 11.9525 33 10.5 33Z" fill="white"/>
</svg>
