<svg width="49" height="43" viewBox="0 0 49 43" fill="none" xmlns="http://www.w3.org/2000/svg">
<path d="M18.9672 42.1128L18.9536 42.1059L18.911 42.0781C18.6619 41.9143 18.4148 41.7463 18.1697 41.574C15.2234 39.4823 12.4701 37.0251 9.95526 34.2432C5.50157 29.2782 0.782715 21.9105 0.782715 12.8361C0.782715 6.06495 5.5519 0.695232 11.3082 0.695232C12.9084 0.685868 14.4898 1.10765 15.9348 1.92922C17.3797 2.75078 18.6511 3.95098 19.6543 5.44056C20.6577 3.95067 21.9293 2.75029 23.3746 1.92871C24.82 1.10714 26.4017 0.68552 28.0023 0.695232C33.7566 0.695232 38.5258 6.06495 38.5258 12.8361C38.5258 21.9128 33.807 29.2805 29.3533 34.2409C26.8385 37.0228 24.0851 39.48 21.1388 41.5717C20.8938 41.7447 20.6467 41.9136 20.3975 42.0781L20.3549 42.1059L20.3414 42.1151L20.3356 42.1174C20.1257 42.2502 19.8918 42.3197 19.6543 42.3197C19.4168 42.3197 19.1828 42.2502 18.973 42.1174L18.9672 42.1128Z" fill="white"/>
<path d="M36.0679 38.2906L41.3602 25.9351H37.7103V17.9403L32.2355 30.2958H36.0679V38.2906ZM36.7979 42.6514C35.1149 42.6514 33.5333 42.2698 32.053 41.5067C30.5728 40.7436 29.2852 39.7079 28.1902 38.3996C27.0953 37.0914 26.2284 35.553 25.5897 33.7845C24.951 32.0159 24.6316 30.1263 24.6316 28.1155C24.6316 26.1046 24.951 24.215 25.5897 22.4464C26.2284 20.6779 27.0953 19.1395 28.1902 17.8313C29.2852 16.523 30.5728 15.4873 32.053 14.7242C33.5333 13.9611 35.1149 13.5795 36.7979 13.5795C38.4809 13.5795 40.0625 13.9611 41.5427 14.7242C43.0229 15.4873 44.3105 16.523 45.4055 17.8313C46.5005 19.1395 47.3673 20.6779 48.0061 22.4464C48.6448 24.215 48.9641 26.1046 48.9641 28.1155C48.9641 30.1263 48.6448 32.0159 48.0061 33.7845C47.3673 35.553 46.5005 37.0914 45.4055 38.3996C44.3105 39.7079 43.0229 40.7436 41.5427 41.5067C40.0625 42.2698 38.4809 42.6514 36.7979 42.6514Z" fill="#894189"/>
<path d="M36.6872 37.3655L41.4984 26.1332H38.1803V18.8652L33.2032 30.0975H36.6872V37.3655ZM37.3508 41.3299C35.8208 41.3299 34.3829 40.983 33.0373 40.2892C31.6916 39.5955 30.5211 38.6539 29.5257 37.4646C28.5302 36.2753 27.7422 34.8768 27.1615 33.269C26.5809 31.6612 26.2905 29.9434 26.2905 28.1154C26.2905 26.2873 26.5809 24.5695 27.1615 22.9617C27.7422 21.3539 28.5302 19.9554 29.5257 18.7661C30.5211 17.5768 31.6916 16.6353 33.0373 15.9415C34.3829 15.2477 35.8208 14.9008 37.3508 14.9008C38.8808 14.9008 40.3186 15.2477 41.6643 15.9415C43.0099 16.6353 44.1805 17.5768 45.1759 18.7661C46.1713 19.9554 46.9594 21.3539 47.54 22.9617C48.1207 24.5695 48.411 26.2873 48.411 28.1154C48.411 29.9434 48.1207 31.6612 47.54 33.269C46.9594 34.8768 46.1713 36.2753 45.1759 37.4646C44.1805 38.6539 43.0099 39.5955 41.6643 40.2892C40.3186 40.983 38.8808 41.3299 37.3508 41.3299Z" fill="white"/>
</svg>
